<svg xmlns="http://www.w3.org/2000/svg" width="106.409" height="79.591" viewBox="0 0 106.409 79.591">
  <g id="Left-quotation" transform="translate(0)">
    <g id="Artboard-Copy" transform="translate(0 0)">
      <path id="quote2" d="M517.319,72.475a15.946,15.946,0,0,0-3.73-6.055,18.38,18.38,0,0,0-7.224-4.457,35.068,35.068,0,0,0-11.553-1.6H488.4a34.274,34.274,0,0,1,8.444-19.94q7.286-8.212,20.2-14.426l-5.223-8a78.64,78.64,0,0,0-29.1,20.975Q470.641,52.82,470.657,66.421q0,14.616,7.017,22.905,7.036,8.276,20.143,8.266a21.006,21.006,0,0,0,14.452-5.48q6.134-5.471,6.14-12.791a21.654,21.654,0,0,0-1.09-6.845m-58.657,0a16,16,0,0,0-3.736-6.055,18.32,18.32,0,0,0-7.224-4.457,35.014,35.014,0,0,0-11.55-1.6h-6.419a34.309,34.309,0,0,1,8.441-19.94Q445.464,32.213,458.38,26l-5.22-8a78.641,78.641,0,0,0-29.1,20.975Q411.981,52.82,412,66.421c0,9.744,2.321,17.388,7.014,22.905s11.4,8.266,20.143,8.266a21.019,21.019,0,0,0,14.454-5.48q6.134-5.471,6.137-12.791a21.9,21.9,0,0,0-1.087-6.845" transform="translate(-412 -18.001)" fill="#b80924" fill-rule="evenodd"/>
    </g>
  </g>
</svg>
