<svg xmlns="http://www.w3.org/2000/svg" width="112.861" height="88.435" viewBox="0 0 112.861 88.435">
  <g id="Right-quotation" transform="translate(0)">
    <g id="Artboard-Copy" transform="translate(0 0)">
      <path id="quote2" d="M413.156,45.908a17.881,17.881,0,0,0,3.956,6.727,19.383,19.383,0,0,0,7.662,4.952,35.633,35.633,0,0,0,12.253,1.775h6.805a39.017,39.017,0,0,1-8.956,22.156q-7.728,9.125-21.428,16.029l5.539,8.888a83.661,83.661,0,0,0,30.86-23.306q12.816-15.383,12.8-30.494,0-16.24-7.443-25.45Q447.742,17.99,433.84,18a21.714,21.714,0,0,0-15.328,6.089Q412.006,30.168,412,38.3a25.111,25.111,0,0,0,1.156,7.605m62.214,0a17.936,17.936,0,0,0,3.962,6.727,19.32,19.32,0,0,0,7.662,4.952,35.578,35.578,0,0,0,12.25,1.775h6.808A39.059,39.059,0,0,1,497.1,81.519q-7.732,9.125-21.431,16.029l5.536,8.888a83.662,83.662,0,0,0,30.86-23.306q12.816-15.383,12.8-30.494,0-16.24-7.44-25.45T496.057,18a21.726,21.726,0,0,0-15.331,6.089q-6.506,6.078-6.509,14.213a25.4,25.4,0,0,0,1.153,7.605" transform="translate(-412 -18.001)" fill="#b80924" fill-rule="evenodd"/>
    </g>
  </g>
</svg>
